<?xml version="1.0" encoding="UTF-8"?>
<svg width="32px" height="32px" viewBox="0 0 32 32" version="1.1" xmlns="http://www.w3.org/2000/svg">
    <circle cx="16" cy="16" r="14" fill="#4F46E5" />
    <path d="M16,8 C19.3137085,8 22,10.6862915 22,14 C22,15.9587841 20.9834291,17.6983087 19.4278146,18.7024669 C19.4734105,18.9266507 19.5,19.1603103 19.5,19.4 C19.5,21.3882251 17.8882251,23 15.9,23 C14.0846737,23 12.5866857,21.6466866 12.3819745,19.8943741 C10.4334577,19.6317099 9,17.9853719 9,16 C9,13.790861 10.790861,12 13,12 C13.3580247,12 13.7052419,12.0470536 14.0350125,12.1358246 C14.6295561,9.74649172 16.1775699,8 16,8 Z" fill="white"/>
</svg>
